<svg width="1440" height="392" viewBox="0 0 1440 392" fill="none" xmlns="http://www.w3.org/2000/svg">
<path fill-rule="evenodd" clip-rule="evenodd" d="M327.512 88.6975C326.701 88.0635 325.863 87.4526 324.999 86.8663C304.243 72.7922 276.008 78.2086 261.934 98.9642C252.583 112.754 251.836 129.844 258.474 143.891C246.296 145.664 234.875 152.353 227.424 163.342C215.816 180.462 217.467 202.67 230.049 217.823C227.831 219.967 225.8 222.37 224 225.024C209.926 245.78 215.342 274.015 236.098 288.089C243.215 292.915 251.211 295.449 259.214 295.859C260.238 309.172 267.098 321.911 279.008 329.987C299.763 344.061 327.998 338.645 342.072 317.889L342.073 317.889L342.073 317.889C362.829 331.963 391.064 326.547 405.138 305.791C411.821 295.936 414.109 284.393 412.447 273.481C430.935 279.018 451.64 272.271 463.045 255.451C471.235 243.373 472.825 228.763 468.633 215.884C475.131 212.52 480.908 207.535 485.303 201.053C499.377 180.297 493.96 152.062 473.205 137.988C468.524 134.814 463.462 132.631 458.268 131.392C466.356 111.897 459.936 88.7586 441.785 76.4505C421.029 62.3764 392.794 67.7928 378.72 88.5484L378.72 88.5487L378.719 88.5484C362.795 77.7506 342.469 78.4252 327.512 88.6975Z" fill="#252525"/>
<path fill-rule="evenodd" clip-rule="evenodd" d="M402.353 76.6563C412.078 78.9967 419.168 84.5965 418.188 89.1639C417.503 92.3578 413.054 94.2011 407.114 94.2206C405.756 98.5151 397.288 100.161 387.829 97.8845C383.39 96.8164 379.501 95.0693 376.677 93.0513C375.205 93.5588 373.444 93.8741 371.485 93.9778C368.907 96.7689 364.643 99.4544 359.499 101.254C355.194 102.759 351.017 103.384 347.61 103.196C345.141 106.26 340.572 109.284 334.951 111.25C325.52 114.549 316.699 113.619 315.251 109.173C314.773 107.707 315.157 106.041 316.224 104.349C315.162 103.959 314.286 103.432 313.644 102.774C310.463 102.299 308.196 100.992 307.522 98.9246C306.074 94.4788 312.545 88.2002 321.977 84.9011C323.836 84.251 325.671 83.765 327.43 83.4379C329.112 79.6579 334.501 75.5378 341.538 73.0763C342.935 72.5879 344.317 72.1922 345.665 71.8868C344.626 70.4295 344.179 68.9471 344.477 67.5599C345.456 62.9925 354.134 61.1872 363.86 63.5275C365.777 63.9888 367.591 64.5768 369.262 65.2585C372.589 62.9642 379.262 62.4028 386.517 64.1488C396.243 66.4891 403.332 72.0889 402.353 76.6563Z" fill="#353535"/>
</svg>
