<svg width="1440" height="329" viewBox="0 0 1440 329" fill="none" xmlns="http://www.w3.org/2000/svg">
<path fill-rule="evenodd" clip-rule="evenodd" d="M517.317 49.072C517.351 49.2688 517.391 49.4659 517.438 49.6629C518.573 54.3919 523.327 57.3055 528.056 56.1706C531.198 55.4166 533.538 53.0654 534.423 50.1853C536.4 51.5226 538.91 52.0565 541.414 51.4556C545.314 50.5195 547.98 47.1214 548.157 43.3058C548.755 43.2884 549.36 43.2095 549.965 43.0644C554.694 41.9295 557.608 37.1758 556.473 32.4468C556.084 30.8252 555.269 29.4172 554.176 28.3125C555.769 26.2711 556.451 23.5494 555.799 20.8358C554.664 16.1068 549.911 13.1932 545.182 14.3281C544.047 9.59903 539.293 6.68542 534.564 7.82032C532.319 8.35923 530.482 9.71414 529.295 11.4949C527.369 8.28556 523.52 6.54652 519.688 7.46622C516.936 8.12664 514.799 10.0124 513.717 12.4057C512.346 12.0385 510.867 11.9981 509.39 12.3525C504.661 13.4874 501.747 18.2411 502.882 22.9701C503.138 24.0367 503.578 25.011 504.161 25.8673C500.454 27.6038 498.35 31.7583 499.343 35.8939C500.478 40.623 505.231 43.5366 509.96 42.4017C510.831 46.0299 513.832 48.5895 517.317 49.072Z" fill="#252525"/>
<path fill-rule="evenodd" clip-rule="evenodd" d="M506.143 39.5785C505.055 37.9723 504.771 36.2434 505.508 35.7169C506.024 35.3488 506.902 35.6661 507.756 36.4395C508.511 36.0015 509.94 36.8724 510.998 38.4347C511.494 39.1678 511.823 39.9264 511.964 40.5846C512.241 40.7041 512.535 40.889 512.829 41.13C513.563 41.0669 514.525 41.2393 515.498 41.6537C516.311 42.0005 516.991 42.4569 517.455 42.9291C518.209 42.8127 519.259 42.9765 520.321 43.4292C522.104 44.1891 523.246 45.4749 522.873 46.3012C522.75 46.5738 522.477 46.7623 522.103 46.8653C522.204 47.0602 522.261 47.2501 522.267 47.4284C522.661 47.9122 522.815 48.3957 522.641 48.78C522.268 49.6063 520.52 49.6602 518.737 48.9004C518.386 48.7507 518.059 48.5805 517.764 48.3974C517.03 48.7192 515.719 48.6053 514.389 48.0384C514.125 47.9259 513.875 47.8019 513.642 47.6696C513.601 48.0143 513.471 48.2852 513.247 48.4451C512.51 48.9716 511.03 48.0963 509.943 46.49C509.728 46.1734 509.545 45.852 509.395 45.5361C508.618 45.4299 507.589 44.6384 506.777 43.4401C505.689 41.8339 505.405 40.105 506.143 39.5785Z" fill="#353535"/>
</svg>
