<svg width="1440" height="275" viewBox="0 0 1440 275" fill="none" xmlns="http://www.w3.org/2000/svg">
<path fill-rule="evenodd" clip-rule="evenodd" d="M467.856 85.2986C468.152 85.4111 468.455 85.5144 468.762 85.608C476.151 87.8555 483.962 83.688 486.209 76.2997C487.703 71.3912 486.364 66.2959 483.131 62.7695C486.552 61.1375 489.301 58.1288 490.491 54.2172C492.345 48.123 489.834 41.741 484.752 38.431C485.208 37.5982 485.587 36.7061 485.874 35.7613C488.122 28.3731 483.954 20.5617 476.566 18.3142C474.033 17.5436 471.45 17.5272 469.058 18.1361C467.543 14.3136 464.364 11.192 460.125 9.9023C452.736 7.65481 444.925 11.8223 442.677 19.2105L442.677 19.2107L442.677 19.2107C435.289 16.9632 427.478 21.1306 425.23 28.5189C424.163 32.0273 424.542 35.631 426.026 38.6891C420.083 38.7462 414.608 42.6184 412.787 48.6057C411.479 52.905 412.343 57.3476 414.75 60.7538C413.146 62.3356 411.901 64.3287 411.199 66.636C408.952 74.0243 413.119 81.8356 420.508 84.0831C422.174 84.59 423.862 84.7706 425.503 84.6615C424.901 91.1332 428.899 97.3539 435.36 99.3194C442.748 101.567 450.56 97.3994 452.807 90.0111L452.807 90.011L452.807 90.011C458.476 91.7354 464.393 89.6837 467.856 85.2986Z" fill="#252525"/>
<path fill-rule="evenodd" clip-rule="evenodd" d="M445.872 92.97C442.798 93.1682 440.202 92.1675 440.074 90.7347C439.984 89.7327 441.125 88.7849 442.87 88.2376C442.878 86.8506 445.219 85.5945 448.209 85.4016C449.612 85.3112 450.915 85.4704 451.93 85.8065C452.316 85.5232 452.805 85.27 453.372 85.0609C453.876 84.0047 454.885 82.8258 456.234 81.8274C457.363 80.9921 458.535 80.4274 459.554 80.1722C460.001 79.0459 461.069 77.7398 462.543 76.6491C465.017 74.8188 467.696 74.2881 468.527 75.4638C468.802 75.8515 468.841 76.3764 468.681 76.9715C469.029 76.9895 469.335 77.0646 469.584 77.1998C470.563 77.0496 471.349 77.2273 471.735 77.7739C472.567 78.9496 471.236 81.3864 468.762 83.2167C468.275 83.5775 467.779 83.8878 467.291 84.1444C467.141 85.4096 465.932 87.1126 464.086 88.4781C463.72 88.7491 463.349 88.9916 462.981 89.2042C463.42 89.5383 463.686 89.9337 463.725 90.369C463.854 91.8018 461.466 93.124 458.392 93.3222C457.786 93.3613 457.198 93.3538 456.645 93.3056C455.875 94.2839 453.964 95.0574 451.67 95.2053C448.596 95.4035 446 94.4028 445.872 92.97Z" fill="#353535"/>
</svg>
