<svg width="1440" height="248" viewBox="0 0 1440 248" fill="none" xmlns="http://www.w3.org/2000/svg">
<path fill-rule="evenodd" clip-rule="evenodd" d="M469.204 88.496C469.548 88.1289 469.881 87.7478 470.204 87.3526C477.956 77.8668 476.55 63.8932 467.064 56.1417C460.762 50.9918 452.479 49.8839 445.356 52.502C445.023 46.4994 442.266 40.6516 437.244 36.5478C429.42 30.1541 418.543 29.9905 410.622 35.4524C409.676 34.28 408.595 33.187 407.382 32.1957C397.896 24.4441 383.922 25.85 376.171 35.3357C373.513 38.5884 371.931 42.3686 371.383 46.2448C364.861 46.1634 358.365 48.946 353.917 54.3891C346.165 63.8749 347.571 77.8485 357.057 85.6L357.057 85.6002C349.305 95.0859 350.711 109.06 360.197 116.811C364.701 120.492 370.217 122.108 375.599 121.774C372.1 130.529 374.481 140.896 382.168 147.178C387.688 151.689 394.728 153.099 401.176 151.62C402.53 154.928 404.704 157.956 407.666 160.376C417.152 168.128 431.126 166.722 438.877 157.236C440.626 155.097 441.908 152.729 442.737 150.256C451.87 155.04 463.408 152.924 470.187 144.628C477.938 135.142 476.532 121.169 467.047 113.417L467.047 113.417C472.994 106.14 473.551 96.2203 469.204 88.496Z" fill="#252525"/>
<path fill-rule="evenodd" clip-rule="evenodd" d="M467.207 125.377C465.645 130.007 462.612 133.213 460.432 132.537C458.908 132.065 458.205 129.82 458.454 126.929C456.423 126.081 455.992 121.889 457.511 117.386C458.224 115.273 459.243 113.457 460.348 112.171C460.165 111.433 460.089 110.562 460.123 109.604C458.878 108.228 457.757 106.037 457.105 103.455C456.56 101.296 456.438 99.2359 456.678 97.5863C455.295 96.2518 454.022 93.8969 453.311 91.0766C452.116 86.3439 452.953 82.0929 455.179 81.5818C455.913 81.4132 456.707 81.6724 457.484 82.2654C457.72 81.7655 458.014 81.3623 458.362 81.0785C458.732 79.5514 459.467 78.5053 460.502 78.2676C462.728 77.7564 465.501 81.1787 466.695 85.9114C466.931 86.844 467.087 87.758 467.17 88.6283C468.936 89.611 470.706 92.4126 471.597 95.9437C471.774 96.6444 471.906 97.3345 471.996 98.0035C472.75 97.5615 473.491 97.4087 474.153 97.6138C476.333 98.2893 476.833 102.59 475.271 107.22C474.963 108.133 474.598 108.99 474.194 109.773C475.165 111.492 475.148 114.763 473.982 118.217C472.42 122.847 469.387 126.053 467.207 125.377Z" fill="#353535"/>
</svg>
