<svg width="1440" height="245" viewBox="0 0 1440 245" fill="none" xmlns="http://www.w3.org/2000/svg">
<path d="M1017.83 89.8679L1017.6 89.7462L1017.37 89.8547C1016.42 90.3054 1015.71 90.5187 1015.2 90.5639C1014.7 90.6081 1014.43 90.4901 1014.27 90.3315C1014.09 90.1555 1013.95 89.8404 1013.9 89.3155C1013.84 88.7973 1013.87 88.142 1013.96 87.3633C1014.09 86.2627 1014.34 84.9855 1014.62 83.5911C1014.73 83.0033 1014.85 82.3947 1014.97 81.7697C1015.35 79.6842 1015.7 77.4459 1015.7 75.3297C1015.7 73.2242 1015.45 71.2252 1015.18 69.4259C1015.11 68.9695 1015.05 68.5283 1014.98 68.1024C1014.78 66.8331 1014.6 65.6994 1014.53 64.7042C1014.44 63.3622 1014.56 62.4189 1014.97 61.8119C1015.36 61.2476 1016.1 60.8525 1017.59 60.8525C1018.02 60.8525 1018.52 61.1267 1019.05 61.8304C1019.57 62.5258 1020.07 63.5637 1020.49 64.8911C1021.33 67.5401 1021.86 71.2308 1021.86 75.3297C1021.86 77.0428 1021.97 78.8565 1022.06 80.6062C1022.08 80.9862 1022.11 81.3632 1022.13 81.7355C1022.24 83.8367 1022.31 85.7813 1022.16 87.3388C1022.09 88.1164 1021.97 88.7742 1021.78 89.2949C1021.59 89.8163 1021.35 90.1661 1021.06 90.375C1020.53 90.7648 1019.59 90.8269 1017.83 89.8679Z" fill="white" stroke="black"/>
<path d="M971.811 95.0774L971.588 94.9557L971.358 95.0642C970.404 95.5149 969.696 95.7282 969.182 95.7734C968.68 95.8176 968.414 95.6995 968.254 95.5409C968.076 95.365 967.937 95.0499 967.879 94.525C967.822 94.0068 967.851 93.3515 967.944 92.5728C968.076 91.4722 968.326 90.1949 968.599 88.8006C968.714 88.2128 968.834 87.6042 968.95 86.9792C969.337 84.8937 969.684 82.6554 969.684 80.5391C969.684 78.4337 969.435 76.4346 969.166 74.6354C969.098 74.179 969.029 73.7378 968.962 73.3118C968.763 72.0425 968.586 70.9088 968.516 69.9137C968.422 68.5717 968.54 67.6283 968.955 67.0214C969.342 66.4571 970.078 66.062 971.572 66.062C972.002 66.062 972.501 66.3362 973.031 67.0399C973.555 67.7353 974.049 68.7732 974.472 70.1006C975.317 72.7496 975.847 76.4403 975.847 80.5391C975.847 82.2523 975.949 84.066 976.047 85.8156C976.068 86.1957 976.089 86.5727 976.109 86.945C976.221 89.0461 976.293 90.9908 976.148 92.5483C976.075 93.3259 975.95 93.9837 975.761 94.5044C975.571 95.0257 975.329 95.3755 975.044 95.5845C974.513 95.9743 973.569 96.0364 971.811 95.0774Z" fill="white" stroke="black"/>
<path fill-rule="evenodd" clip-rule="evenodd" d="M1005.09 32.1233C1005.11 31.8287 1005.12 31.5314 1005.12 31.2318C1005.12 24.039 999.287 18.2082 992.095 18.2082C987.316 18.2082 983.138 20.7818 980.872 24.6186C978.491 22.0131 975.065 20.3788 971.257 20.3788C965.324 20.3788 960.318 24.3458 958.746 29.772C957.88 29.5907 956.982 29.4953 956.062 29.4953C948.87 29.4953 943.039 35.3262 943.039 42.519C943.039 44.9853 943.724 47.2915 944.915 49.2574C941.92 51.6435 940 55.3224 940 59.4497C940 66.6424 945.831 72.4733 953.024 72.4733C953.024 79.6661 958.854 85.4969 966.047 85.4969C969.463 85.4969 972.571 84.1821 974.894 82.0311C976.556 87.3112 981.49 91.1405 987.319 91.1405C991.505 91.1405 995.229 89.166 997.612 86.0977C999.456 87.0989 1001.57 87.6675 1003.82 87.6675C1011.01 87.6675 1016.84 81.8367 1016.84 74.6439C1016.84 73.0216 1016.54 71.4686 1016 70.0361C1021.93 68.818 1026.39 63.5693 1026.39 57.2791C1026.39 50.0863 1020.56 44.2555 1013.37 44.2554C1013.37 38.737 1009.93 34.0203 1005.09 32.1233Z" fill="#252525"/>
<path d="M1024.43 32.6925C1035.22 38.4689 1037.56 52.2844 1037.38 58.4702C1034.85 57.9943 1028.18 52.8562 1021.72 36.1109L1020.8 32.3694L1024.43 32.6925Z" fill="white" stroke="black"/>
<path d="M1001.23 28.6269C988.832 29.1685 981.812 40.8953 979.852 46.6909C982.455 47.3747 990.661 45.5915 1002.67 32.989L1004.84 29.9412L1001.23 28.6269Z" fill="white" stroke="black"/>
<path d="M1025.73 39.0412L1025.69 39.1091L1025.67 39.1861C1024.75 43.2559 1022.82 47.7363 1020.25 50.6028C1018.97 52.0338 1017.56 53.0298 1016.07 53.405C1014.61 53.7754 1013.01 53.5553 1011.29 52.4468L1011.14 52.3516L1010.96 52.3697C1008.7 52.6034 1006.88 52.0608 1005.42 51.0121C1003.95 49.957 1002.83 48.3664 1002.04 46.4617C1000.46 42.6431 1000.25 37.6684 1001.16 33.631L1001.19 33.5259L1001.17 33.4204C1000.73 31.3082 1001.03 29.608 1001.79 28.2585C1002.56 26.9018 1003.81 25.8545 1005.37 25.1041C1008.49 23.5969 1012.72 23.3376 1016.15 24.1151C1019.53 24.8819 1022.78 27.2439 1024.75 30.1315C1026.72 33.0225 1027.35 36.3237 1025.73 39.0412Z" fill="white" stroke="#515151"/>
<path fill-rule="evenodd" clip-rule="evenodd" d="M1027.53 26.7457C1029.68 28.6455 1030.73 31.0172 1029.87 32.0429C1029.26 32.7602 1027.89 32.6294 1026.38 31.8363C1025.46 32.7421 1023.09 32.0212 1021 30.1734C1020.02 29.3063 1019.27 28.341 1018.83 27.4502C1018.38 27.3811 1017.9 27.2244 1017.39 26.9876C1016.36 27.3486 1014.92 27.4563 1013.37 27.221C1012.08 27.0241 1010.94 26.6212 1010.1 26.1157C1009.06 26.5603 1007.5 26.7126 1005.81 26.4556C1002.97 26.0242 1000.86 24.6035 1001.09 23.2823C1001.17 22.8465 1001.49 22.476 1001.99 22.1906C1001.77 21.9488 1001.62 21.6976 1001.55 21.4445C1000.8 20.8967 1000.41 20.2608 1000.51 19.6465C1000.74 18.3253 1003.23 17.6039 1006.06 18.0352C1006.62 18.1203 1007.15 18.2437 1007.64 18.3973C1008.57 17.6655 1010.49 17.3457 1012.61 17.6675C1013.02 17.7313 1013.43 17.8169 1013.81 17.9205C1013.74 17.4115 1013.83 16.9756 1014.09 16.664C1014.95 15.6382 1017.39 16.3468 1019.54 18.2466C1019.97 18.6211 1020.35 19.0139 1020.68 19.4111C1021.83 19.2768 1023.6 20.0312 1025.2 21.4485C1027.35 23.3483 1028.4 25.72 1027.53 26.7457Z" fill="#353535"/>
<ellipse rx="3.48398" ry="5.22596" transform="matrix(0.397626 -0.917547 -0.917547 -0.397626 1020.46 35.0865)" fill="black"/>
<path d="M1024.26 36.5887C1023.73 35.5923 1024.42 34.7162 1022 33.7339C1019.58 32.7516 1018.19 33.6875 1016.84 33.8866C1017.67 34.975 1018.02 36.6142 1020.44 37.5965C1022.86 38.5788 1023.55 37.8052 1024.26 36.5887Z" fill="white"/>
<circle r="1.30649" transform="matrix(0.249195 -0.968453 -0.968453 -0.249195 1022.49 34.5901)" fill="black"/>
<ellipse cx="1007.07" cy="31.2273" rx="3.48398" ry="5.22596" transform="rotate(-81.276 1007.07 31.2273)" fill="black"/>
<path d="M1003.05 30.475C1004.03 29.9128 1003.91 28.804 1006.48 29.2604C1009.05 29.7169 1009.73 31.2484 1010.77 32.1391C1009.49 32.6166 1008.33 33.8214 1005.75 33.3649C1003.18 32.9085 1003.01 31.8845 1003.05 30.475Z" fill="white"/>
<circle cx="1009.53" cy="31.0225" r="1.30649" transform="rotate(-72.276 1009.53 31.0225)" fill="black"/>
<path d="M953.144 97.6821L952.921 97.5604L952.691 97.6689C951.736 98.1196 951.029 98.3329 950.514 98.3781C950.012 98.4223 949.747 98.3043 949.587 98.1457C949.409 97.9697 949.27 97.6546 949.212 97.1297C949.155 96.6115 949.183 95.9562 949.277 95.1775C949.408 94.0769 949.659 92.7997 949.932 91.4054C950.047 90.8175 950.166 90.2089 950.282 89.5839C950.67 87.4984 951.017 85.2602 951.017 83.1439C951.017 81.0385 950.768 79.0394 950.499 77.2401C950.431 76.7837 950.362 76.3425 950.295 75.9166C950.096 74.6473 949.919 73.5136 949.849 72.5184C949.755 71.1764 949.873 70.2331 950.288 69.6261C950.675 69.0618 951.411 68.6667 952.904 68.6667C953.335 68.6667 953.833 68.9409 954.364 69.6446C954.888 70.34 955.381 71.3779 955.805 72.7053C956.649 75.3543 957.18 79.045 957.18 83.1439C957.18 84.857 957.281 86.6707 957.379 88.4204C957.401 88.8004 957.422 89.1774 957.442 89.5497C957.554 91.6509 957.626 93.5955 957.48 95.153C957.408 95.9306 957.283 96.5884 957.093 97.1091C956.903 97.6305 956.661 97.9803 956.377 98.1892C955.845 98.579 954.902 98.6411 953.144 97.6821Z" fill="white" stroke="black"/>
<path d="M997.424 99.4186L997.201 99.2969L996.971 99.4054C996.017 99.8561 995.309 100.069 994.795 100.115C994.293 100.159 994.027 100.041 993.867 99.8822C993.69 99.7063 993.55 99.3911 993.492 98.8663C993.435 98.3481 993.464 97.6927 993.557 96.9141C993.689 95.8135 993.939 94.5362 994.212 93.1419C994.327 92.554 994.447 91.9454 994.563 91.3205C994.95 89.2349 995.297 86.9967 995.297 84.8804C995.297 82.775 995.048 80.7759 994.779 78.9766C994.711 78.5203 994.642 78.079 994.575 77.6531C994.376 76.3838 994.199 75.2501 994.129 74.255C994.035 72.913 994.153 71.9696 994.569 71.3627C994.955 70.7983 995.691 70.4032 997.185 70.4032C997.615 70.4032 998.114 70.6774 998.644 71.3812C999.168 72.0765 999.662 73.1144 1000.09 74.4418C1000.93 77.0908 1001.46 80.7815 1001.46 84.8804C1001.46 86.5936 1001.56 88.4072 1001.66 90.1569C1001.68 90.5369 1001.7 90.9139 1001.72 91.2863C1001.83 93.3874 1001.91 95.332 1001.76 96.8896C1001.69 97.6672 1001.56 98.3249 1001.37 98.8456C1001.18 99.367 1000.94 99.7168 1000.66 99.9257C1000.13 100.316 999.182 100.378 997.424 99.4186Z" fill="white" stroke="black"/>
<path d="M1007.3 44.7248C1007.64 42.8387 1009.9 47.1139 1012.38 47.8951C1014.43 47.1735 1017.89 44.7308 1017.54 46.617C1017.19 48.5032 1014.58 49.8221 1011.75 49.2996C1008.92 48.7771 1006.95 46.611 1007.3 44.7248Z" fill="black"/>
<path d="M1011.36 49.8786C1011.73 48.6305 1012.19 48.3985 1012.62 48.5261C1013.05 48.6536 1013.29 49.0923 1012.92 50.3405C1012.55 51.5886 1011.9 52.497 1011.47 52.3694C1011.04 52.2419 1010.99 51.1267 1011.36 49.8786Z" fill="black"/>
<path d="M1015.62 48.4574C1014.62 48.8803 1013.59 48.6775 1013.46 48.3662C1013.32 48.055 1014.03 47.4599 1015.03 47.037C1016.03 46.6142 1017.03 46.1288 1017.16 46.4401C1017.29 46.7513 1016.62 48.0346 1015.62 48.4574Z" fill="#262626"/>
<path d="M1008.48 47.1673C1009.22 47.9603 1010.19 48.242 1010.41 48.039C1010.63 47.836 1010.2 47.0286 1009.46 46.2355C1008.72 45.4424 1008 44.596 1007.78 44.799C1007.56 45.002 1007.74 46.3742 1008.48 47.1673Z" fill="#262626"/>
</svg>
