<svg width="206" height="147" viewBox="0 0 206 147" fill="none" xmlns="http://www.w3.org/2000/svg">
<path d="M89 0C77.296 0 66.9732 5.91382 60.8568 14.9163C56.1225 12.4157 50.7266 11 45 11C26.2223 11 11 26.2223 11 45C11 48.9671 11.6794 52.7755 12.9283 56.3152C5.05325 62.5423 0 72.181 0 83C0 101.778 15.2223 117 34 117C34.0776 117 34.1552 117 34.2327 116.999C36.2121 133.892 50.5753 147 68 147C81.7286 147 93.5568 138.863 98.9251 127.149C104.364 130.842 110.93 133 118 133C135.321 133 149.617 120.048 151.731 103.3C157.391 107.509 164.404 110 172 110C190.778 110 206 94.7777 206 76C206 67.4733 202.861 59.6798 197.676 53.7117C197.89 52.1717 198 50.5987 198 49C198 30.2223 182.778 15 164 15C163.082 15 162.172 15.0364 161.272 15.1078C155.173 5.99777 144.787 0 133 0C124.61 0 116.93 3.03894 111 8.07613C105.07 3.03894 97.39 0 89 0Z" fill="white"/>
<path d="M68.024 85H59.336V84.616C59.336 83.912 59.544 83.464 59.96 83.272C60.152 83.176 60.392 83.112 60.68 83.08L63.08 82.936L60.344 73.672H49.784L47.096 82.84L50.648 83.128C50.776 84.376 50.408 85 49.544 85H41.48V84.616C41.48 83.912 41.688 83.464 42.104 83.272C42.328 83.176 43.208 83.064 44.744 82.936L54.056 52.552C54.952 52.424 55.848 52.424 56.744 52.552L66.008 82.84H66.056L69.128 83.128C69.256 84.376 68.888 85 68.024 85ZM50.456 71.512H59.72L55.064 55.768L50.456 71.512ZM76.6966 64.696C79.0966 62.232 81.6406 61 84.3286 61C87.0486 61 89.2726 61.992 91.0006 63.976C92.7606 65.96 93.6886 68.888 93.7846 72.76C93.8806 76.632 92.9206 79.768 90.9046 82.168C88.8886 84.536 86.0886 85.72 82.5046 85.72C80.5206 85.72 78.4726 85.208 76.3606 84.184L74.0566 83.272V54.664L71.3686 54.376C70.7286 54.312 70.4086 53.704 70.4086 52.552L76.6966 51.688V64.696ZM83.3686 83.464C85.8966 83.464 87.7846 82.504 89.0326 80.584C90.2806 78.632 90.9046 76.232 90.9046 73.384C90.9046 70.536 90.2966 68.184 89.0806 66.328C87.8966 64.44 86.0566 63.496 83.5606 63.496C82.2806 63.496 81.1606 63.752 80.2006 64.264C79.2726 64.744 78.1046 65.56 76.6966 66.712V80.968C77.3046 81.544 78.2006 82.104 79.3846 82.648C80.5686 83.192 81.8966 83.464 83.3686 83.464ZM102.375 66.136C101.127 68.056 100.503 70.488 100.503 73.432C100.503 76.376 101.095 78.808 102.279 80.728C103.495 82.648 105.255 83.592 107.559 83.56C109.895 83.528 111.687 82.568 112.935 80.68C114.215 78.792 114.855 76.392 114.855 73.48C114.855 70.568 114.263 68.12 113.079 66.136C111.895 64.12 110.135 63.128 107.799 63.16C105.463 63.192 103.655 64.184 102.375 66.136ZM107.991 61C110.199 61 112.263 61.672 114.183 63.016C115.239 63.784 116.087 64.984 116.727 66.616C117.367 68.216 117.703 70.168 117.735 72.472C117.799 76.408 116.887 79.608 114.999 82.072C113.143 84.504 110.631 85.72 107.463 85.72C104.295 85.72 101.879 84.712 100.215 82.696C98.5511 80.68 97.6871 77.768 97.6231 73.96C97.5911 70.12 98.5191 67 100.407 64.6C102.327 62.2 104.855 61 107.991 61ZM132.232 85.72C130.088 85.72 128.2 84.952 126.568 83.416C124.968 81.88 124.168 79.432 124.168 76.072V63.688L120.52 63.4C120.392 62.28 120.76 61.72 121.624 61.72H126.808V75.64C126.808 78.104 127.32 79.992 128.344 81.304C129.4 82.584 130.952 83.224 133 83.224C135.08 83.224 137.224 82.264 139.432 80.344V63.688L135.736 63.4C135.64 62.28 136.008 61.72 136.84 61.72H142.072V82.408L144.76 82.696C145.4 82.76 145.72 83.368 145.72 84.52L140.2 84.952L139.672 82.456C137.56 84.632 135.08 85.72 132.232 85.72ZM153.998 63.64V77.992C153.998 79.912 154.19 81.288 154.574 82.12C154.99 82.952 155.774 83.368 156.926 83.368C158.11 83.368 159.07 83.256 159.806 83.032C160.574 82.776 161.55 82.184 162.734 81.256C163.278 81.448 163.55 81.816 163.55 82.36C163.55 83.192 162.798 83.976 161.294 84.712C159.79 85.416 158.366 85.768 157.022 85.768C154.942 85.768 153.47 85.16 152.606 83.944C151.774 82.728 151.358 80.936 151.358 78.568V63.64H147.998C147.87 62.36 148.238 61.72 149.102 61.72H151.358V56.152L153.998 55.24V61.72H163.07C163.102 62.232 163.006 62.872 162.782 63.64H153.998Z" fill="black"/>
</svg>
