<svg width="247" height="188" viewBox="0 0 247 188" fill="none" xmlns="http://www.w3.org/2000/svg">
<path d="M148.549 16.2383C135.564 9.83196 120.873 10.7395 109.157 17.3745C105.274 12.0102 100.063 7.4868 93.7094 4.35231C72.8765 -5.92582 47.6518 2.62207 37.3685 23.4446C35.196 27.8437 33.8642 32.4387 33.3113 37.0475C21.1642 39.6421 10.2793 47.5645 4.35449 59.5617C-5.92879 80.3842 2.62338 105.596 23.4563 115.874C23.5425 115.917 23.6287 115.959 23.7149 116.001C16.6597 135.817 25.4168 158.214 44.7487 167.751C59.9799 175.266 77.5587 172.717 89.9296 162.666C93.9417 169.738 100.044 175.725 107.888 179.595C127.105 189.076 150.059 182.538 161.575 165.124C165.55 172.889 171.967 179.49 180.394 183.648C201.227 193.926 226.452 185.378 236.735 164.555C241.404 155.1 242.19 144.74 239.706 135.284C240.786 133.693 241.77 132.009 242.646 130.236C252.929 109.414 244.377 84.2018 223.544 73.9237C222.525 73.4211 221.496 72.9635 220.458 72.5502C218.68 59.1095 210.442 46.7737 197.365 40.3221C188.057 35.7297 177.872 34.8957 168.534 37.2358C164.714 28.4043 157.858 20.8306 148.549 16.2383Z" fill="white"/>
<path d="M54.648 79.88C57.208 79.88 59.352 80.456 61.08 81.608C62.808 82.76 63.672 84.184 63.672 85.88C63.672 87.544 62.824 88.392 61.128 88.424C61.128 86.408 60.504 84.856 59.256 83.768C58.04 82.648 56.392 82.088 54.312 82.088C50.952 82.088 48.376 83.448 46.584 86.168C44.824 88.888 43.944 92.456 43.944 96.872C43.944 101.288 44.808 104.776 46.536 107.336C48.264 109.864 50.936 111.128 54.552 111.128C58.2 111.128 61.16 110.152 63.432 108.2C63.816 108.392 64.008 108.712 64.008 109.16C64.008 110.056 63.08 111.048 61.224 112.136C59.368 113.192 57.064 113.72 54.312 113.72C50.088 113.72 46.824 112.328 44.52 109.544C42.248 106.728 41.032 102.792 40.872 97.736C40.744 92.68 41.928 88.44 44.424 85.016C46.92 81.592 50.328 79.88 54.648 79.88ZM71.922 94.136C70.674 96.056 70.05 98.488 70.05 101.432C70.05 104.376 70.642 106.808 71.826 108.728C73.042 110.648 74.802 111.592 77.106 111.56C79.442 111.528 81.234 110.568 82.482 108.68C83.762 106.792 84.402 104.392 84.402 101.48C84.402 98.568 83.81 96.12 82.626 94.136C81.442 92.12 79.682 91.128 77.346 91.16C75.01 91.192 73.202 92.184 71.922 94.136ZM77.538 89C79.746 89 81.81 89.672 83.73 91.016C84.786 91.784 85.634 92.984 86.274 94.616C86.914 96.216 87.25 98.168 87.282 100.472C87.346 104.408 86.434 107.608 84.546 110.072C82.69 112.504 80.178 113.72 77.01 113.72C73.842 113.72 71.426 112.712 69.762 110.696C68.098 108.68 67.234 105.768 67.17 101.96C67.138 98.12 68.066 95 69.954 92.6C71.874 90.2 74.402 89 77.538 89ZM115.843 113H107.347V112.664C107.347 112.024 107.555 111.624 107.971 111.464C108.195 111.336 109.187 111.224 110.947 111.128V98.552C110.947 93.784 109.091 91.4 105.379 91.4C104.035 91.4 102.787 91.672 101.635 92.216C100.515 92.76 99.2511 93.64 97.8431 94.856V111.032L101.251 111.32C101.347 112.44 100.979 113 100.147 113H91.6031V112.664C91.6031 112.024 91.8111 111.624 92.2271 111.464C92.4511 111.336 93.4431 111.224 95.2031 111.128V91.736L92.5151 91.448C91.8751 91.384 91.5551 90.824 91.5551 89.768L97.0751 89L97.7471 92.84H97.8911C100.579 90.28 103.315 89 106.099 89C108.147 89 109.907 89.736 111.379 91.208C112.851 92.648 113.587 94.92 113.587 98.024V111.032L116.947 111.32C117.075 112.44 116.707 113 115.843 113ZM125.42 91.64V105.992C125.42 107.912 125.612 109.288 125.996 110.12C126.412 110.952 127.196 111.368 128.348 111.368C129.532 111.368 130.492 111.256 131.228 111.032C131.996 110.776 132.972 110.184 134.156 109.256C134.7 109.448 134.972 109.816 134.972 110.36C134.972 111.192 134.22 111.976 132.716 112.712C131.212 113.416 129.788 113.768 128.444 113.768C126.364 113.768 124.892 113.16 124.028 111.944C123.196 110.728 122.78 108.936 122.78 106.568V91.64H119.42C119.292 90.36 119.66 89.72 120.524 89.72H122.78V84.152L125.42 83.24V89.72H134.492C134.524 90.232 134.428 90.872 134.204 91.64H125.42ZM155.959 113.768C154.071 113.768 153.015 112.696 152.791 110.552C151.959 111.416 150.887 112.168 149.575 112.808C148.263 113.416 146.647 113.72 144.727 113.72C142.839 113.72 141.255 113.16 139.975 112.04C138.727 110.92 138.103 109.352 138.103 107.336C138.103 105.64 138.695 104.168 139.879 102.92C141.287 101.384 143.735 100.616 147.223 100.616C149.207 100.616 151.047 100.872 152.743 101.384V97.112C152.743 95.416 152.247 93.992 151.255 92.84C150.295 91.688 148.903 91.112 147.079 91.112C143.879 91.112 142.087 92.696 141.703 95.864C141.063 95.928 140.535 95.784 140.119 95.432C139.703 95.08 139.495 94.488 139.495 93.656C139.495 92.344 140.167 91.24 141.511 90.344C142.887 89.448 144.647 89 146.791 89C148.455 89 150.167 89.4 151.927 90.2C152.951 90.68 153.783 91.512 154.423 92.696C155.063 93.848 155.383 95.272 155.383 96.968V111.32L158.599 111.704C158.599 113.08 157.719 113.768 155.959 113.768ZM152.743 104.12C151.207 103.16 149.367 102.68 147.223 102.68C145.079 102.68 143.527 103.08 142.567 103.88C141.639 104.648 141.175 105.704 141.175 107.048C141.175 108.36 141.591 109.416 142.423 110.216C143.287 111.016 144.471 111.416 145.975 111.416C148.567 111.416 150.823 110.408 152.743 108.392V104.12ZM172.619 89C174.603 89 176.155 89.4 177.275 90.2C178.427 91 179.003 92.056 179.003 93.368C179.003 94.84 178.235 95.576 176.699 95.576C176.667 94.424 176.251 93.416 175.451 92.552C174.651 91.688 173.451 91.256 171.851 91.256C169.419 91.256 167.563 92.264 166.283 94.28C165.003 96.264 164.363 98.712 164.363 101.624C164.363 104.152 164.875 106.344 165.898 108.2C167.083 110.312 169.099 111.368 171.947 111.368C174.283 111.368 176.523 110.52 178.667 108.824C178.987 109.048 179.147 109.352 179.147 109.736C179.147 110.696 178.235 111.608 176.411 112.472C174.619 113.304 172.731 113.72 170.747 113.72C167.803 113.72 165.531 112.68 163.931 110.6C162.363 108.52 161.547 105.672 161.483 102.056C161.419 98.44 162.363 95.368 164.315 92.84C166.299 90.28 169.067 89 172.619 89ZM188.279 91.64V105.992C188.279 107.912 188.471 109.288 188.855 110.12C189.271 110.952 190.055 111.368 191.207 111.368C192.391 111.368 193.351 111.256 194.087 111.032C194.855 110.776 195.831 110.184 197.015 109.256C197.559 109.448 197.831 109.816 197.831 110.36C197.831 111.192 197.079 111.976 195.575 112.712C194.071 113.416 192.647 113.768 191.303 113.768C189.223 113.768 187.751 113.16 186.887 111.944C186.055 110.728 185.639 108.936 185.639 106.568V91.64H182.279C182.151 90.36 182.519 89.72 183.383 89.72H185.639V84.152L188.279 83.24V89.72H197.351C197.383 90.232 197.287 90.872 197.063 91.64H188.279Z" fill="black"/>
</svg>
