<svg width="245" height="207" viewBox="0 0 245 207" fill="none" xmlns="http://www.w3.org/2000/svg">
<path d="M87.6934 14.9877L88.2688 14.2189C92.7788 8.19363 99.3608 3.67205 107.269 1.84997C120.838 -1.27624 134.383 4.45364 141.844 15.2566L142.461 16.1487L143.3 15.4625C150.08 9.92077 159.034 7.07322 168.402 8.27876C177.951 9.50754 186.017 14.7012 191.162 21.9955L191.716 22.7803L192.522 22.2589C198.843 18.1733 206.585 16.2171 214.635 17.2529C232.711 19.579 245.479 36.1185 243.153 54.1948C241.935 63.6621 236.819 71.6722 229.623 76.8226L228.605 77.551L229.54 78.3829C237.415 85.3888 241.802 96.0335 240.356 107.272C238.03 125.348 221.49 138.116 203.414 135.79C195.192 134.732 188.071 130.736 182.966 124.99L181.736 123.606L181.253 125.394C179.286 132.672 174.94 138.842 169.189 143.152L168.538 143.64L168.883 144.377C171.452 149.859 172.545 156.113 171.714 162.565C169.388 180.642 152.849 193.41 134.772 191.084C126.551 190.026 119.43 186.029 114.325 180.284L113.095 178.9L112.612 180.687C108.375 196.362 93.1064 206.895 76.55 204.764C58.4738 202.438 45.7058 185.899 48.0318 167.823C48.0428 167.737 48.054 167.652 48.0656 167.568L48.0656 167.567L48.0706 167.53L87.6934 14.9877ZM87.6934 14.9877L86.9019 14.4438M87.6934 14.9877L86.9019 14.4438M86.9019 14.4438C79.5452 9.38844 70.1776 7.31713 60.7957 9.47865C48.2276 12.3743 39.0027 22.0922 36.1349 33.8248L36.0482 34.1791L35.7539 34.3944C27.0808 40.7395 21.8797 51.0886 22.241 62.0909L22.2639 62.7895L21.6158 63.0511C6.82742 69.0198 -1.84398 85.0175 1.8499 101.05C3.68149 109 8.24062 115.609 14.3128 120.121L14.9234 120.575L14.6492 121.284C13.7104 123.713 13.046 126.295 12.6984 128.995C10.3723 147.072 23.1404 163.611 41.2167 165.937C43.1901 166.191 45.1442 166.265 47.0631 166.172L48.2745 166.114M86.9019 14.4438L48.2745 166.114M48.2745 166.114L48.1012 167.314M48.2745 166.114L48.1012 167.314M48.1012 167.314C48.0909 167.386 48.0808 167.457 48.0709 167.528L48.1012 167.314Z" fill="white" stroke="white" stroke-width="2"/>
<path d="M90.192 103H81.264V102.616C81.264 101.912 81.472 101.464 81.888 101.272C82.08 101.176 82.32 101.112 82.608 101.08L85.008 100.936V87.832H68.544V100.84L72.096 101.128C72.224 102.376 71.856 103 70.992 103H62.016V102.616C62.016 101.912 62.224 101.464 62.64 101.272C62.832 101.176 63.072 101.112 63.36 101.08L65.76 100.936V72.76L62.256 72.472C62.128 71.224 62.496 70.6 63.36 70.6H72.336V70.936C72.336 71.64 72.128 72.104 71.712 72.328C71.52 72.424 71.28 72.488 70.992 72.52L68.592 72.664V85.672H85.008V72.76L81.504 72.472C81.376 71.224 81.744 70.6 82.608 70.6H91.536V70.936C91.536 71.64 91.328 72.104 90.912 72.328C90.72 72.424 90.48 72.488 90.192 72.52L87.792 72.664V100.84L91.296 101.128C91.424 102.376 91.056 103 90.192 103ZM100.235 84.136C98.9865 86.056 98.3625 88.488 98.3625 91.432C98.3625 94.376 98.9545 96.808 100.139 98.728C101.355 100.648 103.115 101.592 105.419 101.56C107.755 101.528 109.547 100.568 110.795 98.68C112.075 96.792 112.715 94.392 112.715 91.48C112.715 88.568 112.123 86.12 110.939 84.136C109.755 82.12 107.995 81.128 105.659 81.16C103.323 81.192 101.515 82.184 100.235 84.136ZM105.851 79C108.059 79 110.123 79.672 112.043 81.016C113.099 81.784 113.947 82.984 114.587 84.616C115.227 86.216 115.563 88.168 115.595 90.472C115.659 94.408 114.747 97.608 112.859 100.072C111.003 102.504 108.491 103.72 105.323 103.72C102.155 103.72 99.7385 102.712 98.0745 100.696C96.4105 98.68 95.5465 95.768 95.4825 91.96C95.4505 88.12 96.3785 85 98.2665 82.6C100.187 80.2 102.715 79 105.851 79ZM159.42 103H150.732V102.664C150.732 102.024 150.94 101.624 151.356 101.464C151.58 101.368 152.524 101.256 154.188 101.128V89.08C154.188 86.616 153.66 84.744 152.604 83.464C151.58 82.184 150.124 81.544 148.236 81.544C146.86 81.544 145.644 81.848 144.588 82.456C143.564 83.064 142.412 83.976 141.132 85.192C141.42 86.056 141.564 87.208 141.564 88.648V101.032L145.26 101.32C145.388 102.44 145.02 103 144.156 103H135.468V102.664C135.468 102.024 135.676 101.624 136.092 101.464C136.316 101.368 137.26 101.256 138.924 101.128V89.08C138.924 86.648 138.38 84.792 137.292 83.512C136.204 82.2 134.716 81.544 132.828 81.544C131.516 81.544 130.348 81.816 129.324 82.36C128.332 82.904 127.276 83.72 126.156 84.808V101.032L129.852 101.32C129.948 102.44 129.58 103 128.748 103H120.012V102.664C120.012 102.024 120.22 101.624 120.636 101.464C120.86 101.368 121.82 101.256 123.516 101.128V81.592H121.308C120.348 81.592 119.868 80.984 119.868 79.768L125.388 79L126.012 82.456H126.156C128.268 80.152 130.668 79 133.356 79C134.828 79 136.22 79.368 137.532 80.104C138.844 80.84 139.852 81.992 140.556 83.56C141.228 82.696 141.868 81.976 142.476 81.4C143.084 80.824 143.948 80.28 145.068 79.768C146.22 79.256 147.452 79 148.764 79C150.908 79 152.78 79.768 154.38 81.304C156.012 82.84 156.828 85.288 156.828 88.648V101.032L160.524 101.32C160.652 102.44 160.284 103 159.42 103ZM181.974 90.136H166.758C166.694 90.904 166.662 91.48 166.662 91.864C166.662 94.616 167.27 96.888 168.486 98.68C169.702 100.472 171.558 101.368 174.054 101.368C176.55 101.368 178.854 100.52 180.966 98.824C181.286 99.048 181.446 99.368 181.446 99.784C181.446 100.616 180.582 101.48 178.854 102.376C177.126 103.272 175.238 103.72 173.19 103.72C170.374 103.72 168.086 102.76 166.326 100.84C164.566 98.888 163.686 95.928 163.686 91.96C163.686 87.992 164.742 84.84 166.854 82.504C168.966 80.168 171.494 79 174.438 79C175.814 79 177.014 79.272 178.038 79.816C179.062 80.36 179.846 81.08 180.39 81.976C181.446 83.768 181.974 85.752 181.974 87.928V90.136ZM178.998 88.264C179.062 86.184 178.646 84.456 177.75 83.08C176.854 81.704 175.574 81.016 173.91 81.016C172.246 81.016 170.79 81.688 169.542 83.032C168.326 84.344 167.494 86.088 167.046 88.264H178.998Z" fill="black"/>
</svg>
