<svg width="377" height="273" viewBox="0 0 377 273" fill="none" xmlns="http://www.w3.org/2000/svg">
<path d="M157 0C145.296 0 134.973 5.91382 128.857 14.9163C124.122 12.4157 118.727 11 113 11C94.2223 11 79 26.2223 79 45C79 48.9671 79.6794 52.7755 80.9283 56.3152C73.0532 62.5423 68 72.181 68 83C68 88.9556 69.5312 94.5535 72.2215 99.4216C67.676 102.006 63.7845 105.607 60.8568 109.916C56.1224 107.416 50.7266 106 45 106C26.2223 106 11 121.222 11 140C11 143.967 11.6794 147.776 12.9283 151.315C5.05322 157.542 0 167.181 0 178C0 196.778 15.2223 212 34 212C34.0776 212 34.1552 212 34.2327 211.999C36.2121 228.892 50.5753 242 68 242C81.7286 242 93.5568 233.863 98.9251 222.149C104.364 225.842 110.93 228 118 228C122.325 228 126.462 227.192 130.267 225.72C134.914 231.929 141.698 236.59 149.847 238.468C158.168 240.385 166.48 239.069 173.467 235.344C171.956 252.006 182.942 267.643 199.702 271.504C218.001 275.72 236.252 264.304 240.468 246.006C240.482 245.946 240.495 245.886 240.509 245.826C240.524 245.76 240.538 245.693 240.553 245.627L240.583 245.49C242.404 246.266 244.318 246.893 246.315 247.353C264.613 251.569 282.864 240.153 287.08 221.854C289.808 210.013 285.99 198.191 277.997 190.18C281.448 191.36 285.149 192 289 192C306.321 192 320.617 179.048 322.731 162.3C328.391 166.509 335.404 169 343 169C361.778 169 377 153.778 377 135C377 126.473 373.861 118.68 368.676 112.712C368.89 111.172 369 109.599 369 108C369 89.2223 353.778 74 335 74C334.082 74 333.172 74.0364 332.272 74.1078C326.173 64.9978 315.787 59 304 59C295.61 59 287.93 62.0389 282 67.0761C278.612 64.1985 274.653 61.9729 270.317 60.5936C269.051 58.1076 267.489 55.7981 265.676 53.7117C265.89 52.1717 266 50.5987 266 49C266 30.2223 250.778 15 232 15C231.082 15 230.172 15.0364 229.272 15.1078C223.173 5.99777 212.787 0 201 0C192.61 0 184.93 3.03894 179 8.07614C173.07 3.03894 165.39 0 157 0Z" fill="white"/>
<path d="M143.952 140.808V147H122.016V146.616C122.016 145.912 122.224 145.464 122.64 145.272C122.832 145.176 123.072 145.112 123.36 145.08L125.76 144.936V116.664L122.208 116.376C122.08 115.128 122.448 114.504 123.312 114.504H132.288V114.84C132.288 115.544 132.08 116.008 131.664 116.232C131.472 116.328 131.232 116.392 130.944 116.424L128.544 116.568V144.84L141.6 144.648L142.08 139.704C143.328 139.576 143.952 139.944 143.952 140.808ZM156.123 147H147.387V146.664C147.387 146.024 147.595 145.624 148.011 145.464C148.235 145.368 149.195 145.256 150.891 145.128V125.736L148.203 125.496C147.563 125.432 147.243 124.84 147.243 123.72L153.531 123V145.032L157.227 145.32C157.323 146.44 156.955 147 156.123 147ZM153.291 118.296C152.939 118.68 152.443 118.872 151.803 118.872C151.163 118.872 150.651 118.68 150.267 118.296C149.915 117.912 149.739 117.416 149.739 116.808C149.739 116.2 149.915 115.704 150.267 115.32C150.651 114.936 151.163 114.744 151.803 114.744C152.443 114.744 152.939 114.936 153.291 115.32C153.675 115.704 153.867 116.2 153.867 116.808C153.867 117.416 153.675 117.912 153.291 118.296ZM185.124 147H176.628V146.664C176.628 146.024 176.836 145.624 177.252 145.464C177.476 145.336 178.468 145.224 180.228 145.128V132.552C180.228 127.784 178.372 125.4 174.66 125.4C173.316 125.4 172.068 125.672 170.916 126.216C169.796 126.76 168.532 127.64 167.124 128.856V145.032L170.532 145.32C170.628 146.44 170.26 147 169.428 147H160.884V146.664C160.884 146.024 161.092 145.624 161.508 145.464C161.732 145.336 162.724 145.224 164.484 145.128V125.736L161.796 125.448C161.156 125.384 160.836 124.824 160.836 123.768L166.356 123L167.028 126.84H167.172C169.86 124.28 172.596 123 175.38 123C177.428 123 179.188 123.736 180.66 125.208C182.132 126.648 182.868 128.92 182.868 132.024V145.032L186.228 145.32C186.356 146.44 185.988 147 185.124 147ZM203.773 123.72H211.069V124.056C211.069 124.888 210.621 125.352 209.725 125.448L208.237 125.592L201.085 133.368L209.629 145.08L212.845 145.32C212.941 146.44 212.573 147 211.741 147H208.093L199.405 135.192L196.093 138.84V145.032L199.789 145.32C199.885 146.44 199.517 147 198.685 147H189.949V146.664C189.949 146.024 190.157 145.624 190.573 145.464C190.797 145.368 191.757 145.256 193.453 145.128V116.664L190.765 116.376C190.125 116.312 189.805 115.704 189.805 114.552L196.093 113.688V136.2L205.549 125.688L202.669 125.4C202.573 124.28 202.941 123.72 203.773 123.72ZM214.593 129.576C214.625 127.56 215.457 125.96 217.089 124.776C218.721 123.56 220.465 122.968 222.321 123C224.209 123.032 225.777 123.384 227.025 124.056C228.305 124.696 228.929 125.608 228.897 126.792C228.865 127.592 228.577 128.152 228.033 128.472C227.489 128.792 226.945 128.936 226.401 128.904C226.433 127.784 226.113 126.888 225.441 126.216C224.769 125.544 223.713 125.192 222.273 125.16C220.833 125.128 219.617 125.464 218.625 126.168C217.633 126.872 217.121 127.784 217.089 128.904C217.057 130.024 217.521 130.904 218.481 131.544C219.441 132.184 220.801 132.84 222.561 133.512C224.321 134.184 225.489 134.664 226.065 134.952C226.673 135.24 227.345 135.64 228.081 136.152C229.393 137.08 230.017 138.488 229.953 140.376C229.921 142.232 229.089 143.928 227.457 145.464C225.857 147 223.697 147.752 220.977 147.72C219.057 147.656 217.361 147.24 215.889 146.472C214.417 145.672 213.697 144.632 213.729 143.352C213.761 142.712 213.969 142.2 214.353 141.816C214.737 141.432 215.201 141.256 215.745 141.288C216.033 142.536 216.705 143.56 217.761 144.36C218.817 145.128 220.129 145.528 221.697 145.56C223.265 145.592 224.593 145.208 225.681 144.408C226.801 143.608 227.377 142.584 227.409 141.336C227.441 140.056 227.089 139.112 226.353 138.504C225.617 137.864 224.513 137.272 223.041 136.728C221.569 136.184 220.593 135.832 220.113 135.672C219.665 135.48 218.993 135.16 218.097 134.712C217.233 134.264 216.593 133.832 216.177 133.416C215.121 132.296 214.593 131.016 214.593 129.576Z" fill="black"/>
</svg>
